<svg xmlns="http://www.w3.org/2000/svg" width="1200" height="440" viewBox="0 0 1200 440" role="img" aria-labelledby="title desc">
<title id="title">A13 / Eason</title>
<desc id="desc">Build systems. Break assumptions. Keep the evidence. Agent systems, reinforcement learning, and embodied AI.</desc>
<rect width="1200" height="440" rx="30" fill="#F7F7F5"/>
<rect x="1" y="1" width="1198" height="438" rx="29" fill="none" stroke="#D7D7D2"/>

<text x="64" y="66" fill="#111113" font-family="ui-monospace,SFMono-Regular,Menlo,monospace" font-size="17" font-weight="700" letter-spacing="2.2">A13 / EASON</text>
<circle cx="1130" cy="60" r="6" fill="#0071E3"/>
<text x="1110" y="66" text-anchor="end" fill="#0071E3" font-family="ui-monospace,SFMono-Regular,Menlo,monospace" font-size="14" font-weight="700" letter-spacing="1.4">SYSTEM ONLINE</text>
<line x1="64" y1="94" x2="1136" y2="94" stroke="#D7D7D2"/>

<text x="64" y="174" fill="#111113" font-family="-apple-system,BlinkMacSystemFont,'Segoe UI',Arial,sans-serif" font-size="56" font-weight="750" letter-spacing="-2">Build systems.</text>
<text x="64" y="238" fill="#111113" font-family="-apple-system,BlinkMacSystemFont,'Segoe UI',Arial,sans-serif" font-size="56" font-weight="750" letter-spacing="-2">Break assumptions.</text>
<text x="64" y="302" fill="#111113" font-family="-apple-system,BlinkMacSystemFont,'Segoe UI',Arial,sans-serif" font-size="56" font-weight="750" letter-spacing="-2">Keep the evidence.</text>

<text x="66" y="356" fill="#6E6E73" font-family="ui-monospace,SFMono-Regular,Menlo,monospace" font-size="15" letter-spacing="1.3">AGENT SYSTEMS / REINFORCEMENT LEARNING / EMBODIED AI</text>

<line x1="820" y1="130" x2="820" y2="362" stroke="#D7D7D2"/>
<text x="862" y="154" fill="#8A8A8F" font-family="ui-monospace,SFMono-Regular,Menlo,monospace" font-size="13" letter-spacing="1.3">RUNTIME</text>
<text x="1136" y="154" text-anchor="end" fill="#111113" font-family="ui-monospace,SFMono-Regular,Menlo,monospace" font-size="13" font-weight="700">ITERATING</text>

<text x="862" y="198" fill="#8A8A8F" font-family="ui-monospace,SFMono-Regular,Menlo,monospace" font-size="13" letter-spacing="1.3">RULE</text>
<text x="1136" y="198" text-anchor="end" fill="#111113" font-family="ui-monospace,SFMono-Regular,Menlo,monospace" font-size="13" font-weight="700">NO EVIDENCE, NO DONE</text>

<text x="862" y="242" fill="#8A8A8F" font-family="ui-monospace,SFMono-Regular,Menlo,monospace" font-size="13" letter-spacing="1.3">MODE</text>
<text x="1136" y="242" text-anchor="end" fill="#111113" font-family="ui-monospace,SFMono-Regular,Menlo,monospace" font-size="13" font-weight="700">BUILD / BREAK / VERIFY</text>

<text x="862" y="286" fill="#8A8A8F" font-family="ui-monospace,SFMono-Regular,Menlo,monospace" font-size="13" letter-spacing="1.3">SIGNALS</text>
<circle cx="1061" cy="281" r="4.5" fill="#0071E3"/>
<text x="1075" y="286" fill="#0071E3" font-family="ui-monospace,SFMono-Regular,Menlo,monospace" font-size="13" font-weight="700">ACTIVE</text>
<circle cx="862" cy="332" r="4.5" fill="#FF9F0A"/>
<text x="876" y="337" fill="#A65A00" font-family="ui-monospace,SFMono-Regular,Menlo,monospace" font-size="13" font-weight="700">EXPERIMENTS IN MOTION</text>

<path d="M64 400 C130 378 190 416 256 392 S382 378 448 400 S578 414 642 390 S756 382 804 400" fill="none" stroke="#0071E3" stroke-width="2.2"/>
<path d="M804 400 C860 418 922 378 984 398 S1084 410 1136 390" fill="none" stroke="#FF9F0A" stroke-width="2.2"/>
</svg>